PathFileType  4	(X/Y/Z) C:\Users\wagnerel85475\Documents\Thesis\opencap-core\Data\3375ffbc-daeb-4a43-b4f7-ac9899cd4c71\MarkerData\PreAugmentation
DataRate	CameraRate	NumFrames	NumMarkers	Units	OrigDataRate	OrigDataStartFrame	OrigNumFrames
60.0	60.0	11	20	m	60.0	1	641
Frame#	Time	Neck			RShoulder			RElbow			RWrist			LShoulder			LElbow			LWrist			midHip			RHip			RKnee			RAnkle			LHip			LKnee			LAnkle			LBigToe			LSmallToe			LHeel			RBigToe			RSmallToe			RHeel			
		X1	Y1	Z1	X2	Y2	Z2	X3	Y3	Z3	X4	Y4	Z4	X5	Y5	Z5	X6	Y6	Z6	X7	Y7	Z7	X8	Y8	Z8	X9	Y9	Z9	X10	Y10	Z10	X11	Y11	Z11	X12	Y12	Z12	X13	Y13	Z13	X14	Y14	Z14	X15	Y15	Z15	X16	Y16	Z16	X17	Y17	Z17	X18	Y18	Z18	X19	Y19	Z19	X20	Y20	Z20	

1	0.0000000	0.5911800	1.3852900	-0.0867400	0.5908900	1.3568700	0.0920300	0.5465800	1.0480400	0.1556900	0.6195400	0.7641800	0.1930400	0.6078700	1.4348800	-0.2660400	0.7084500	1.6651300	-0.4328200	0.7173900	1.9546100	-0.4170900	0.6207700	0.8052000	-0.0845800	0.6279900	0.8078500	0.0427100	0.5958900	0.3208500	0.0464800	0.5398500	-0.1778700	0.0882300	0.6329000	0.8066500	-0.2008100	0.5760400	0.3112800	-0.2096100	0.5581100	-0.1664400	-0.2622600	0.7717800	-0.2134300	-0.3251200	0.7030500	-0.2226600	-0.3649800	0.5102400	-0.2332200	-0.2483100	0.7246300	-0.2323100	0.1737200	0.6813900	-0.2298100	0.1980900	0.4749200	-0.2339400	0.0596300
2	0.0166667	0.5910500	1.3854900	-0.0869800	0.5909400	1.3569100	0.0920100	0.5469300	1.0508100	0.1555100	0.6190700	0.7638100	0.1929700	0.6077800	1.4351000	-0.2658200	0.7171000	1.6681200	-0.4283300	0.7171400	1.9646200	-0.4165100	0.6206800	0.8052500	-0.0846000	0.6281700	0.8049700	0.0429900	0.5857100	0.3145100	0.0426200	0.5398600	-0.1779000	0.0882400	0.6327300	0.8067100	-0.2008600	0.5765600	0.3113100	-0.2099900	0.5583900	-0.1664300	-0.2624200	0.7722000	-0.2133100	-0.3249100	0.7030700	-0.2227400	-0.3649800	0.5101400	-0.2332100	-0.2483500	0.7240600	-0.2325100	0.1737400	0.6815800	-0.2297200	0.1982000	0.4749700	-0.2366700	0.0602700
3	0.0333333	0.5911700	1.3855900	-0.0868200	0.5908600	1.3569500	0.0919700	0.5470700	1.0510900	0.1554600	0.6195800	0.7641200	0.1929100	0.6077800	1.4355600	-0.2660000	0.7167800	1.6719500	-0.4282900	0.7075900	1.9698100	-0.4134200	0.6205900	0.8052400	-0.0846700	0.6274600	0.8049700	0.0429400	0.5858200	0.3146200	0.0426700	0.5398500	-0.1779300	0.0882300	0.6235500	0.8020600	-0.2046300	0.5760900	0.3113200	-0.2096000	0.5580900	-0.1664600	-0.2622500	0.7718600	-0.2134300	-0.3250800	0.7024600	-0.2264200	-0.3654400	0.5101800	-0.2332200	-0.2483200	0.7245700	-0.2322300	0.1738000	0.6813800	-0.2297800	0.1981500	0.4750500	-0.2367000	0.0602200
4	0.0500000	0.5910900	1.3856400	-0.0869800	0.5909100	1.3569300	0.0919200	0.5469900	1.0509200	0.1553800	0.6274100	0.7648200	0.1882800	0.6077900	1.4424300	-0.2656800	0.7153500	1.6760500	-0.4210200	0.7151600	1.9715400	-0.4096000	0.6206300	0.8052400	-0.0847300	0.6282500	0.8049600	0.0428800	0.5855900	0.3144800	0.0426100	0.5401600	-0.1810800	0.0888000	0.6234900	0.8020700	-0.2046900	0.5767700	0.3114300	-0.2099400	0.5584100	-0.1663400	-0.2623800	0.7722800	-0.2132300	-0.3248600	0.7024800	-0.2264000	-0.3654300	0.5101900	-0.2331800	-0.2483200	0.7237800	-0.2290000	0.1743900	0.6815900	-0.2297100	0.1982300	0.4749500	-0.2367600	0.0602600
5	0.0666667	0.5913000	1.3855900	-0.0868100	0.5907800	1.3599300	0.0919200	0.5470100	1.0511100	0.1553700	0.6279600	0.7651300	0.1882600	0.6179100	1.4387400	-0.2618400	0.7156600	1.6794600	-0.4206300	0.7151600	1.9755600	-0.4089900	0.6206700	0.8052600	-0.0847100	0.6275900	0.8049900	0.0428800	0.5858100	0.3145600	0.0427000	0.5401500	-0.1811000	0.0887900	0.6232900	0.8056400	-0.2048400	0.5760500	0.3111600	-0.2096400	0.5580600	-0.1664300	-0.2622400	0.7719000	-0.2133900	-0.3250800	0.7024800	-0.2263900	-0.3654400	0.5102100	-0.2332100	-0.2483100	0.7243800	-0.2287200	0.1744500	0.6913700	-0.2262100	0.2010000	0.4750200	-0.2367300	0.0602100
6	0.0833333	0.5910900	1.3856500	-0.0870000	0.5907600	1.3569000	0.0918700	0.5469300	1.0508700	0.1553200	0.6274600	0.7648600	0.1882500	0.6076500	1.4424600	-0.2657400	0.7143200	1.6870100	-0.4209500	0.7144700	1.9863000	-0.4014500	0.6206800	0.8052500	-0.0847100	0.6282200	0.8049800	0.0429100	0.5854400	0.3144000	0.0425500	0.5398800	-0.1779300	0.0882200	0.6330300	0.8030100	-0.2008000	0.5767400	0.3112200	-0.2100200	0.5585800	-0.1623900	-0.2618400	0.7722400	-0.2133900	-0.3248200	0.7032300	-0.2228600	-0.3649000	0.5109900	-0.2298900	-0.2477600	0.7140400	-0.2325500	0.1714200	0.6816300	-0.2297200	0.1981500	0.4748700	-0.2340300	0.0596700
7	0.1000000	0.5913300	1.3856400	-0.0868200	0.5907800	1.3569500	0.0918900	0.5470600	1.0510400	0.1553300	0.6279600	0.7652300	0.1881600	0.6077900	1.4426700	-0.2659800	0.7145300	1.6907700	-0.4209600	0.7140500	1.9868200	-0.3937300	0.6207300	0.8053000	-0.0847000	0.6272500	0.8093600	0.0430600	0.5754100	0.3123200	0.0392500	0.5398700	-0.1779200	0.0882200	0.6330700	0.8030400	-0.2007300	0.5761900	0.3111700	-0.2096500	0.5582600	-0.1623800	-0.2617000	0.7717000	-0.2135900	-0.3251100	0.7031300	-0.2228400	-0.3649500	0.5111200	-0.2298100	-0.2477000	0.7244400	-0.2322600	0.1736900	0.6813700	-0.2297900	0.1980800	0.4749300	-0.2340100	0.0596200
8	0.1166667	0.5911600	1.3856600	-0.0870200	0.5908600	1.3568700	0.0918600	0.5470500	1.0509600	0.1552200	0.6274800	0.7649100	0.1880400	0.6076000	1.4424500	-0.2657400	0.7051600	1.6956300	-0.4177700	0.7052400	1.9884100	-0.3897500	0.6206900	0.8052600	-0.0846900	0.6283000	0.8050000	0.0428700	0.5751400	0.3121500	0.0391400	0.5398600	-0.1779600	0.0882200	0.6330400	0.8030000	-0.2007500	0.5859700	0.3134200	-0.2139400	0.5586200	-0.1623200	-0.2618400	0.7721700	-0.2134300	-0.3248700	0.7031700	-0.2228600	-0.3649300	0.5111100	-0.2297900	-0.2477100	0.7240100	-0.2324800	0.1736800	0.6816000	-0.2297100	0.1981500	0.4748600	-0.2340900	0.0596700
9	0.1333333	0.5913400	1.3856500	-0.0867900	0.5908400	1.3569400	0.0918900	0.5369800	1.0506200	0.1521700	0.6280300	0.7652100	0.1880200	0.6076000	1.4426400	-0.2659100	0.7050400	1.6992800	-0.4179100	0.7044100	1.9926100	-0.3745300	0.6206800	0.8052300	-0.0846700	0.6275500	0.8049600	0.0428600	0.5753400	0.3121900	0.0391900	0.5398700	-0.1778800	0.0882200	0.6331000	0.8030700	-0.2006900	0.5762000	0.3111600	-0.2096500	0.5582500	-0.1623800	-0.2616900	0.7716500	-0.2136000	-0.3251400	0.7030900	-0.2228300	-0.3649700	0.5111700	-0.2298200	-0.2476800	0.7144800	-0.2322900	0.1714400	0.6813600	-0.2297500	0.1980800	0.4749400	-0.2339800	0.0596100
10	0.1500000	0.5912300	1.3855900	-0.0869700	0.5911600	1.3571400	0.0919000	0.5368800	1.0504300	0.1521200	0.6275700	0.7649100	0.1880200	0.6073500	1.4424100	-0.2656300	0.7046400	1.6998900	-0.4179200	0.6955700	1.9936200	-0.3705600	0.6205400	0.8053000	-0.0846800	0.6281500	0.8049900	0.0429100	0.5756000	0.3157200	0.0387100	0.5398600	-0.1778500	0.0882400	0.6329900	0.8032000	-0.2007600	0.5769500	0.3113300	-0.2100100	0.5585200	-0.1623400	-0.2618500	0.7639500	-0.2164500	-0.3286400	0.7031300	-0.2229700	-0.3649300	0.5110600	-0.2298900	-0.2477200	0.7338600	-0.2253500	0.1773000	0.6918900	-0.2260500	0.2010500	0.4747700	-0.2340100	0.0596800
11	0.1666667	0.5913500	1.3855800	-0.0867400	0.5910600	1.3570600	0.0919500	0.5369300	1.0506400	0.1521200	0.6281300	0.7651700	0.1879900	0.5983000	1.4429000	-0.2620300	0.7049100	1.6997100	-0.4178300	0.7040100	1.9924800	-0.3664500	0.6205700	0.8051900	-0.0846700	0.6275100	0.8049700	0.0428500	0.5758400	0.3157800	0.0388000	0.5398700	-0.1777700	0.0882300	0.6329600	0.8030500	-0.2006900	0.5852500	0.3132600	-0.2135800	0.5581500	-0.1624100	-0.2617000	0.7634500	-0.2166000	-0.3289000	0.7030800	-0.2229300	-0.3649600	0.5110600	-0.2298300	-0.2477000	0.7245700	-0.2287100	0.1744100	0.6915800	-0.2262100	0.2009500	0.4660500	-0.2343900	0.0634100
